<?xml version="1.0" standalone="no"?>
<!DOCTYPE svg PUBLIC "-//W3C//DTD SVG 20010904//EN"
 "http://www.w3.org/TR/2001/REC-SVG-20010904/DTD/svg10.dtd">
<svg version="1.0" xmlns="http://www.w3.org/2000/svg"
 width="1024.000000pt" height="1024.000000pt" viewBox="0 0 1024.000000 1024.000000"
 preserveAspectRatio="xMidYMid meet">

<g transform="translate(0.000000,1024.000000) scale(0.100000,-0.100000)"
fill="#000000" stroke="none">
<path d="M5030 8105 c-174 -33 -370 -110 -500 -198 -66 -45 -253 -230 -321
-318 -147 -193 -229 -446 -229 -711 0 -183 24 -307 90 -473 160 -402 518 -699
928 -770 47 -8 89 -15 93 -15 5 0 9 -498 9 -1132 0 -1105 1 -1134 20 -1165 41
-68 119 -86 180 -43 63 45 60 -18 60 1214 l0 1125 38 6 c341 52 595 195 803
454 125 156 220 364 256 565 35 198 14 450 -54 641 -151 420 -545 748 -983
820 -111 18 -298 18 -390 0z m-245 -109 c-274 -127 -477 -318 -638 -601 -37
-65 -25 -22 23 81 80 173 252 357 425 454 55 30 206 89 230 89 6 0 -12 -11
-40 -23z m649 -196 c165 -42 319 -129 448 -253 205 -196 300 -442 285 -732
-12 -238 -96 -430 -265 -607 -119 -125 -251 -207 -409 -254 -106 -32 -322 -44
-426 -25 -151 29 -279 86 -405 181 -178 134 -291 306 -353 540 -18 68 -23 112
-23 220 0 170 21 257 103 425 52 105 71 133 150 216 103 110 210 188 320 234
75 32 210 70 281 79 65 8 217 -4 294 -24z"/>
<path d="M5100 7326 c-122 -34 -220 -119 -281 -241 -36 -71 -42 -94 -46 -168
-22 -354 340 -591 666 -435 127 61 217 185 242 335 10 58 9 83 -5 148 -36 180
-138 298 -304 354 -71 24 -198 27 -272 7z"/>
<path d="M4135 7923 c-233 -106 -483 -288 -720 -527 -257 -258 -394 -451 -535
-758 -94 -204 -175 -488 -212 -743 -20 -139 -17 -551 5 -700 50 -338 148 -630
302 -900 248 -437 589 -778 1015 -1015 129 -71 357 -176 365 -168 2 2 5 91 5
198 l2 194 -114 51 c-211 95 -406 234 -599 425 -336 334 -565 807 -630 1300
-19 142 -16 422 5 565 49 328 160 636 326 900 110 176 270 365 401 472 38 31
69 65 69 74 0 34 53 185 92 264 62 124 139 233 227 323 45 45 80 82 78 82 -1
0 -38 -17 -82 -37z"/>
<path d="M6297 7878 c107 -107 206 -241 255 -345 36 -77 78 -213 78 -255 0
-10 6 -18 13 -18 23 0 302 -291 379 -396 137 -185 214 -335 302 -592 87 -255
116 -430 116 -709 0 -262 -32 -466 -111 -709 -112 -345 -273 -609 -529 -864
-194 -195 -347 -306 -575 -420 l-130 -66 -3 -196 -2 -196 76 29 c175 68 429
210 588 331 436 332 746 754 905 1233 257 779 153 1610 -286 2275 -106 160
-203 278 -344 421 -209 211 -506 421 -754 533 l-60 27 82 -83z"/>
<path d="M3963 5913 c-74 -164 -76 -178 -83 -523 -9 -409 -2 -1011 12 -1075
45 -208 230 -399 429 -444 l39 -9 2 421 3 421 70 -66 c78 -73 135 -161 167
-258 22 -64 22 -76 28 -945 5 -677 9 -889 19 -920 45 -140 175 -298 298 -363
78 -41 198 -72 278 -72 213 0 446 143 538 330 67 135 67 136 67 1054 0 911 -2
874 67 1016 27 55 56 94 112 149 l76 75 3 -421 2 -421 50 13 c28 7 80 27 117
44 89 42 216 169 260 261 59 123 58 116 58 835 l0 660 -27 87 c-36 113 -91
230 -96 203 -17 -98 -110 -296 -188 -400 -115 -155 -266 -293 -414 -381 -80
-47 -250 -118 -312 -129 l-38 -7 -2 -1217 -3 -1216 -22 -47 c-99 -216 -410
-209 -494 12 -22 55 -22 55 -20 1255 l1 1200 -70 22 c-209 66 -409 190 -568
351 -154 158 -265 340 -299 495 -10 42 -21 77 -24 77 -4 0 -20 -30 -36 -67z"/>
</g>
</svg>
